# xmcd CD database file
#
# Track frame offsets:
#	183
#	19915
#	34083
#	55453
#	71880
#	85520
#	101873
#	122178
#	141073
#	156478
#	169138
#	181040
#
# Disc length: 2700 seconds
#
# Revision: 2
# Processed by: cddbd v1.5.2PL0 Copyright (c) Steve Scherf et al.
# Submitted via: CDex 1.70beta2
#
DISCID=a70a8a0c
DTITLE=Michal Tučný - Medicinman
DYEAR=1991
DGENRE=Country
TTITLE0=Medicinman
TTITLE1=Je mi to líto (Heartbreak Hotel)
TTITLE2=Tennessee Road
TTITLE3=Starej harmonikář
TTITLE4=Já oženil se s kytarou
TTITLE5=Každej svou káru táhne zas dál (All the soft places to fall)
TTITLE6=Kaw-Liga
TTITLE7=Odval ten kámen
TTITLE8=Prázdný nádraží
TTITLE9=V uličkách města Bakersfield (Streets of Bakersfield)
TTITLE10=Nech si ty svý city (Kansas City)
TTITLE11=To je ten poslední song (The Last Cowboy Song)
EXTD=YEAR: 1991
EXTT0=
EXTT1=
EXTT2=
EXTT3=
EXTT4=
EXTT5=
EXTT6=
EXTT7=
EXTT8=
EXTT9=
EXTT10=
EXTT11=
PLAYORDER=
